Coordinates
version=1
nRows=24
nColumns=24
inDegrees=yes

Units are S.I. units (second, meters, Newtons, ...)
Angles are in degrees.

endheader
time	pelvis_tilt	pelvis_list	pelvis_rotation	pelvis_tx	pelvis_ty	pelvis_tz	hip_flexion_r	hip_adduction_r	hip_rotation_r	knee_angle_r	ankle_angle_r	subtalar_angle_r	mtp_angle_r	hip_flexion_l	hip_adduction_l	hip_rotation_l	knee_angle_l	ankle_angle_l	subtalar_angle_l	mtp_angle_l	lumbar_extension	lumbar_bending	lumbar_rotation
      5.38000000	    -11.69952805	      1.23792899	     -6.33507175	     -1.82384697	     -0.02701084	     -0.31106939	     -2.67447422	      2.40830915	     11.05781763	    -17.39406173	      6.35869820	      7.21479534	     22.95535857	     34.38220517	     -1.71057034	     -1.51123051	     -8.42264935	     -0.93322155	     -0.35553157	      6.60174963	     10.01063525	     -1.28045240	     16.44465782
      5.38500000	    -11.68929906	      1.44141353	     -6.38165637	     -1.81725810	     -0.02772202	     -0.31166285	     -2.75085700	      2.07731964	     10.77337730	    -17.98780234	      6.16236239	      7.83595071	     23.18466525	     34.32214159	     -1.47603550	     -1.62087686	     -9.00616760	     -1.38431052	     -0.62973549	      6.62341302	     10.20658273	     -1.47075631	     16.49781862
      5.39000000	    -11.71310430	      1.60977029	     -6.37528702	     -1.81082391	     -0.02844715	     -0.31239268	     -2.74114028	      1.77332713	     10.35407754	    -18.64736352	      5.93971387	      8.60410358	     23.61273694	     34.33017505	     -1.24069325	     -1.62255821	     -9.59968650	     -1.94047853	     -0.96749278	      6.75893638	     10.40475183	     -1.62358830	     16.44188123
      5.39500000	    -11.76265890	      1.85188929	     -6.34940812	     -1.80434638	     -0.02909535	     -0.31311732	     -2.68551905	      1.39334372	      9.93862238	    -19.31440772	      5.61543107	      9.30093981	     24.07699324	     34.36277239	     -0.92876147	     -1.66657997	    -10.16183758	     -2.56229798	     -1.25279139	      6.91465731	     10.65053527	     -1.86374768	     16.40546895
      5.40000000	    -11.81133846	      2.12261731	     -6.27136066	     -1.79791430	     -0.02965831	     -0.31391000	     -2.61057823	      0.97438554	      9.45755448	    -19.99272624	      5.21205524	     10.03095125	     24.64404780	     34.41704940	     -0.55513596	     -1.66727545	    -10.73422702	     -3.23452385	     -1.52598220	      7.11224779	     10.88799460	     -2.14480988	     16.35505008
      5.40500000	    -11.85877579	      2.44240331	     -6.15636763	     -1.79152145	     -0.03012056	     -0.31468430	     -2.50510528	      0.50435085	      8.91382815	    -20.68652317	      4.62759845	     10.64451010	     25.48262538	     34.45791921	     -0.11159730	     -1.51965598	    -11.26425824	     -3.99220597	     -1.83590682	      7.42590937	     11.12062627	     -2.50359687	     16.28218945
      5.41000000	    -11.91840699	      2.84407140	     -6.03172776	     -1.78510283	     -0.03049081	     -0.31537261	     -2.37153095	     -0.03862064	      8.50200606	    -21.42883170	      4.15199336	     11.31827903	     25.82808581	     34.55207147	      0.39986838	     -1.55793106	    -11.88193843	     -4.54503255	     -1.77569008	      7.45324277	     11.38525626	     -2.96953440	     16.17581261
      5.41500000	    -11.96376922	      3.20158002	     -5.88999461	     -1.77888341	     -0.03075559	     -0.31627210	     -2.16229703	     -0.59345915	      7.76975826	    -22.26845533	      3.56501274	     12.32669604	     26.57518790	     34.63644247	      0.91796347	     -1.35935257	    -12.49714661	     -5.18599044	     -1.96885813	      7.46897656	     11.58645419	     -3.36386114	     16.04697257
      5.42000000	    -12.00719425	      3.62638880	     -5.68769846	     -1.77259588	     -0.03094142	     -0.31710719	     -1.95623003	     -1.20633692	      7.06818467	    -23.10238014	      2.83524730	     13.14970455	     27.36263946	     34.71716028	      1.53220589	     -1.07450431	    -13.12445869	     -5.77626442	     -2.05873556	      7.37955619	     11.80217961	     -3.86787927	     15.91303378
      5.42500000	    -12.03924057	      4.05993474	     -5.47759533	     -1.76630869	     -0.03103435	     -0.31790620	     -1.73225852	     -1.84128185	      6.32365782	    -23.97631929	      2.01189361	     14.02425646	     28.13248794	     34.78561381	      2.16387207	     -0.73986114	    -13.77475909	     -6.27598825	     -2.06351678	      7.17494907	     12.00409203	     -4.39345498	     15.75143841
      5.43000000	    -12.06356240	      4.51891160	     -5.23315415	     -1.75996267	     -0.03102171	     -0.31875939	     -1.51538658	     -2.51443442	      5.57740211	    -24.80613257	      0.84507775	     14.72745689	     29.49333254	     34.81486874	      2.87221601	     -0.19854957	    -14.40102944	     -6.73590858	     -2.26658701	      6.48117550	     12.20530972	     -4.95689706	     15.54325591
      5.43500000	    -12.07277037	      4.95700485	     -4.98798808	     -1.75362570	     -0.03097965	     -0.31956756	     -1.26558293	     -3.19037149	      4.71952517	    -25.73992115	     -0.26730450	     15.62935823	     30.46242254	     34.84169989	      3.54877196	      0.24546530	    -15.07164156	     -6.99196175	     -2.16887098	      5.81312103	     12.38254283	     -5.50442722	     15.35899255
      5.44000000	    -12.06336106	      5.35772797	     -4.71424949	     -1.74724211	     -0.03089074	     -0.32029682	     -1.02264091	     -3.82895241	      3.84831572	    -26.74354755	     -1.34331968	     16.61368988	     30.78829558	     34.84628658	      4.18387285	      0.57355018	    -15.73417532	     -7.23623871	     -1.87666510	      5.60668241	     12.53673622	     -6.03673633	     15.14352598
      5.44500000	    -12.05193033	      5.76823359	     -4.44206618	     -1.74086994	     -0.03074329	     -0.32121688	     -0.74409957	     -4.52412189	      2.88359228	    -27.73569809	     -2.81328951	     17.44114273	     31.93725866	     34.77915289	      4.90485374	      1.33948499	    -16.32264906	     -7.45030267	     -2.18748067	      4.46177451	     12.68089441	     -6.55058069	     14.95644680
      5.45000000	    -12.03061969	      6.12746118	     -4.16427837	     -1.73444850	     -0.03059139	     -0.32206323	     -0.46068861	     -5.17691716	      1.91730017	    -28.77770382	     -4.32663741	     18.33203853	     32.76731049	     34.70387087	      5.54943898	      1.88607958	    -16.93068981	     -7.46072757	     -2.15073987	      3.57503985	     12.81481829	     -7.02184575	     14.75009733
      5.45500000	    -11.99342884	      6.41244049	     -3.89867302	     -1.72809240	     -0.03043355	     -0.32288843	     -0.15446125	     -5.76593732	      0.96237292	    -29.90709587	     -5.83147528	     19.26986876	     33.10331226	     34.59531701	      6.10895364	      2.37734875	    -17.50295945	     -7.50254411	     -2.13000245	      3.16679601	     12.90862598	     -7.40904227	     14.55910811
      5.46000000	    -11.93711945	      6.72261125	     -3.65923044	     -1.72160874	     -0.03019343	     -0.32372130	      0.13467880	     -6.39270174	      0.07032730	    -30.97942893	     -7.74180447	     19.88215068	     34.00269935	     34.40405946	      6.70364990	      2.88026609	    -18.01427369	     -7.30807797	     -2.25675323	      2.00092067	     13.01064260	     -7.81095643	     14.35902297
      5.46500000	    -11.95056813	      6.94628818	     -3.38513085	     -1.71517480	     -0.03007777	     -0.32459604	      0.53853566	     -6.93802564	     -0.84381937	    -32.18825879	     -9.44202318	     20.59458040	     33.91859107	     34.25859124	      7.21832982	      3.41406000	    -18.44878427	     -7.33914911	     -2.51613188	      1.85164553	     13.16931897	     -8.12377953	     14.15198581
      5.47000000	    -11.94620525	      7.14781973	     -3.13607753	     -1.70879217	     -0.02992118	     -0.32551900	      0.95749147	     -7.47195864	     -1.69479029	    -33.42068378	    -11.29126803	     21.10209029	     33.85387753	     34.05500083	      7.71341186	      3.93737628	    -18.81961891	     -7.34176082	     -2.91532916	      1.63214540	     13.29980681	     -8.38962954	     13.95886162
      5.47500000	    -11.94183008	      7.31090201	     -2.91185528	     -1.70249932	     -0.02975894	     -0.32643561	      1.41726113	     -7.96792234	     -2.47019267	    -34.69182199	    -13.21334438	     21.43522228	     33.72675282	     33.82335766	      8.15839370	      4.42047039	    -19.14337115	     -7.28000489	     -3.33649333	      1.44721405	     13.41423396	     -8.60360959	     13.79812776
      5.48000000	    -11.92154523	      7.48754874	     -2.75712535	     -1.69627974	     -0.02959052	     -0.32722922	      1.92141535	     -8.47666838	     -3.14989266	    -36.02853672	    -15.11026684	     21.54671739	     33.39489591	     33.55477526	      8.55857767	      4.70084596	    -19.41486517	     -7.12769678	     -3.64648920	      1.43873640	     13.51018437	     -8.82560943	     13.71617745
      5.48500000	    -11.96273174	      7.57053066	     -2.51990819	     -1.69013708	     -0.02944567	     -0.32831853	      2.48523740	     -8.88752456	     -3.78642900	    -37.34873442	    -17.06319211	     21.55066917	     33.05385417	     33.30908328	      8.95379124	      5.26594121	    -19.63412988	     -7.05379535	     -4.25626146	      1.36230967	     13.64755632	     -8.92733018	     13.50740474
      5.49000000	    -11.95604378	      7.72964767	     -2.38456810	     -1.68407372	     -0.02929207	     -0.32922955	      3.07909382	     -9.38729940	     -4.35466930	    -38.75368374	    -18.88531879	     21.30916216	     32.61115688	     33.00205481	      9.33888353	      5.53082367	    -19.80261176	     -6.85282781	     -4.65742284	      1.41371269	     13.73833440	     -9.08969763	     13.43876449
      5.49500000	    -12.01697364	      7.78491612	     -2.18795037	     -1.67816441	     -0.02914799	     -0.33032081	      3.75654824	     -9.75466587	     -4.84522398	    -40.14981490	    -20.72445368	     20.87754919	     32.09148511	     32.74620271	      9.68292083	      6.02972476	    -19.94832517	     -6.75591894	     -5.31360418	      1.43562859	     13.86686248	     -9.14493064	     13.27232317
